<svg xmlns="http://www.w3.org/2000/svg" width="131.383" height="40" viewBox="0 0 131.383 40"><g transform="translate(36.287)"><path d="M71.64,5.839A20.4,20.4,0,0,0,57.31,0,20.106,20.106,0,0,0,37.05,19.95,20.106,20.106,0,0,0,57.31,39.9a20.4,20.4,0,0,0,14.33-5.839l-7.2-7.09a10.147,10.147,0,0,1-7.13,2.9,9.927,9.927,0,1,1,0-19.852,10.165,10.165,0,0,1,7.13,2.9Z" transform="translate(-37.05)" fill="#00283f"/></g><g transform="translate(0 0.81)"><path d="M24.84.81,0,38.9H10.48l3.16-5.127,25.64.02A22.8,22.8,0,0,1,35.07,25.1H19.34l8.69-13.294,6.49,9.909c-.06-.64-.08-1.289-.08-1.948A22.711,22.711,0,0,1,36.9,9.508L31.29.81H24.84Z" transform="translate(0 -0.81)" fill="#00283f"/></g><g transform="translate(100.052 0.81)"><rect width="8.46" height="38.08" fill="#00283f"/></g><g transform="translate(111.294 0.81)"><rect width="8.46" height="38.08" fill="#00283f"/></g><g transform="translate(122.924 11.82)"><rect width="8.46" height="27.08" fill="#00283f"/></g><g transform="translate(69.516 10.94)"><path d="M99.06,31.13a14.535,14.535,0,1,1,.9-5.04,14.253,14.253,0,0,1-.16,2.18l-.03.04H79.03a6.966,6.966,0,0,0,11.29,2.82Zm-6.87-7.46a6.993,6.993,0,0,0-13.17,0Z" transform="translate(-70.9 -11.56)" fill="#00283f"/></g><g transform="translate(122.924 0.81)"><rect width="8.46" height="8.46" fill="#c9252c"/></g></svg>