<?xml version="1.0" encoding="utf-8"?>
<!-- Generator: Adobe Illustrator 25.3.1, SVG Export Plug-In . SVG Version: 6.00 Build 0)  -->
<svg version="1.1" id="Livello_1" xmlns="http://www.w3.org/2000/svg" xmlns:xlink="http://www.w3.org/1999/xlink" x="0px" y="0px"
	 viewBox="0 0 454.3 136" style="enable-background:new 0 0 454.3 136;" xml:space="preserve">
<style type="text/css">
	.st0{fill-rule:evenodd;clip-rule:evenodd;fill:#FFFFFF;}
	.st1{fill:#FFFFFF;}
</style>
<g>
	<polygon class="st0" points="10.4,9.1 129.8,9.1 124.1,19.1 28.3,19.1 66.8,86.2 61.4,96.1 	"/>
	<polygon class="st0" points="140.7,26 39.5,26 45.7,35.9 122.8,35.9 74.5,118.4 80.1,127.9 	"/>
	<polygon class="st0" points="60.4,129.7 110.2,43.1 98.7,43 60.8,109.2 11,26 0,26 	"/>
</g>
<rect x="156.1" y="0.8" class="st0" width="1.2" height="135.2"/>
<rect x="185" y="16.3" class="st1" width="3.9" height="28.7"/>
<polygon class="st1" points="201.5,45.1 201.5,19.8 192.5,19.8 192.5,16.3 214.5,16.3 214.5,19.8 205.4,19.8 205.4,45.1 "/>
<path class="st1" d="M213.4,45.1L224,16.3h4.3L239,45.1h-4.2l-3-8.6h-11.3l-3.1,8.6H213.4z M221.7,33.1h8.9l-4.4-12.7L221.7,33.1z"
	/>
<polygon class="st1" points="242,45.1 242,16.3 245.9,16.3 245.9,41.4 260.3,41.4 260.3,45.1 "/>
<rect x="263.4" y="16.3" class="st1" width="3.9" height="28.7"/>
<path class="st1" d="M270.4,45.1l10.7-28.7h4.3l10.7,28.7h-4.2l-3-8.6h-11.3l-3.1,8.6H270.4z M278.7,33.1h8.9l-4.4-12.7L278.7,33.1z
	"/>
<polygon class="st1" points="191.3,85 191.3,59.8 182.2,59.8 182.2,56.3 204.3,56.3 204.3,59.8 195.2,59.8 195.2,85 "/>
<polygon class="st1" points="207.7,85 207.7,56.3 228.2,56.3 228.2,59.8 211.6,59.8 211.6,68.4 226.9,68.4 226.9,71.8 211.6,71.8 
	211.6,81.4 228.5,81.4 228.5,85 "/>
<path class="st1" d="M253.3,74.3h3.8c-0.2,3.5-1.4,6.3-3.6,8.4c-2.2,2.1-5.1,3.1-8.6,3.1c-4,0-7.2-1.4-9.5-4.1
	c-2.3-2.8-3.4-6.6-3.4-11.4c0-4.5,1.2-8.1,3.6-10.7c2.4-2.6,5.6-4,9.7-4c3.2,0,5.9,0.8,8,2.5c2.1,1.7,3.3,4,3.6,6.9h-3.8
	c-0.4-1.9-1.2-3.4-2.6-4.4c-1.4-1-3.1-1.5-5.3-1.5c-2.9,0-5.2,1-6.8,3.1c-1.6,2-2.4,4.9-2.4,8.6c0,3.5,0.8,6.3,2.5,8.4
	c1.7,2.1,3.9,3.2,6.6,3.2c2.4,0,4.3-0.7,5.8-2.2C252.4,78.7,253.2,76.7,253.3,74.3"/>
<polygon class="st1" points="261.7,85 261.7,56.3 265.6,56.3 265.6,68.1 280.5,68.1 280.5,56.3 284.4,56.3 284.4,85 280.5,85 
	280.5,71.5 265.6,71.5 265.6,85 "/>
<path class="st1" d="M290.5,85V56.3h4.3l13.4,20.9c0.3,0.5,0.6,0.9,0.8,1.3c0.2,0.4,0.4,0.8,0.5,1.1V56.3h3.7V85H309l-13.7-21.2
	c-0.2-0.3-0.4-0.7-0.6-1c-0.2-0.4-0.3-0.7-0.5-1.1V85H290.5z"/>
<path class="st1" d="M318.1,70.7c0-4.7,1.2-8.5,3.6-11.1c2.4-2.7,5.7-4,10-4c4.2,0,7.6,1.3,10,4c2.4,2.7,3.6,6.4,3.6,11.1
	c0,4.7-1.2,8.5-3.6,11.1c-2.4,2.7-5.7,4-10,4c-4.3,0-7.6-1.3-10-4C319.3,79.1,318.1,75.4,318.1,70.7 M322.2,70.7
	c0,3.7,0.8,6.6,2.5,8.6c1.7,2.1,4,3.1,7,3.1c3,0,5.3-1,7-3.1c1.7-2.1,2.5-4.9,2.5-8.6c0-3.7-0.8-6.6-2.5-8.6c-1.7-2.1-4-3.1-7-3.1
	c-3,0-5.4,1-7,3.1C323,64.1,322.2,67,322.2,70.7"/>
<polygon class="st1" points="350.2,85 350.2,56.3 354.2,56.3 354.2,81.4 368.5,81.4 368.5,85 "/>
<path class="st1" d="M368.9,70.7c0-4.7,1.2-8.5,3.6-11.1c2.4-2.7,5.7-4,10-4c4.2,0,7.6,1.3,10,4c2.4,2.7,3.6,6.4,3.6,11.1
	c0,4.7-1.2,8.5-3.6,11.1c-2.4,2.7-5.7,4-10,4c-4.3,0-7.6-1.3-10-4C370.2,79.1,368.9,75.4,368.9,70.7 M373,70.7
	c0,3.7,0.8,6.6,2.5,8.6c1.7,2.1,4,3.1,7,3.1c3,0,5.3-1,7-3.1c1.7-2.1,2.5-4.9,2.5-8.6c0-3.7-0.8-6.6-2.5-8.6c-1.7-2.1-4-3.1-7-3.1
	c-3,0-5.4,1-7,3.1C373.8,64.1,373,67,373,70.7"/>
<path class="st1" d="M422.5,81.1c-1.2,1.5-2.6,2.7-4.2,3.5c-1.6,0.8-3.4,1.2-5.5,1.2c-3.9,0-7-1.4-9.4-4.2
	c-2.4-2.8-3.6-6.4-3.6-10.9c0-4.7,1.2-8.4,3.7-11.1c2.5-2.7,5.9-4.1,10.2-4.1c3.3,0,5.9,0.8,8,2.5c2.1,1.7,3.3,4,3.7,6.9h-3.8
	c-0.4-1.9-1.2-3.4-2.6-4.5c-1.4-1.1-3.2-1.6-5.3-1.6c-3.1,0-5.6,1-7.3,3.1c-1.7,2-2.6,4.9-2.6,8.6c0,3.7,0.9,6.5,2.6,8.6
	c1.7,2.1,4,3.1,7,3.1c2.7,0,4.9-0.8,6.5-2.5c1.6-1.7,2.4-3.9,2.4-6.7v-0.4h-9v-3.2h12.6V85h-2.6L422.5,81.1z"/>
<polygon class="st1" points="442.2,85 438.3,85 438.3,73.5 427.6,56.3 432.5,56.3 440.2,69.9 447.8,56.3 452.4,56.3 442.2,73.2 "/>
<path class="st1" d="M181.7,124.9l10.7-28.7h4.3l10.7,28.7h-4.2l-3-8.6h-11.3l-3.1,8.6H181.7z M190,113h8.9l-4.4-12.7L190,113z"/>
<polygon class="st1" points="210.4,124.9 210.4,96.2 214.3,96.2 214.3,121.3 228.6,121.3 228.6,124.9 "/>
<polygon class="st1" points="231.7,124.9 231.7,96.2 235.7,96.2 235.7,121.3 250,121.3 250,124.9 "/>
<rect x="253.2" y="96.2" class="st1" width="3.9" height="28.7"/>
<path class="st1" d="M260.2,124.9l10.7-28.7h4.3l10.7,28.7h-4.2l-3-8.6h-11.3l-3.1,8.6H260.2z M268.5,113h8.9l-4.4-12.7L268.5,113z"
	/>
<path class="st1" d="M288.8,124.9V96.2h4.3l13.4,20.9c0.3,0.5,0.6,0.9,0.8,1.3c0.2,0.4,0.4,0.8,0.5,1.1V96.2h3.7v28.7h-4.2
	l-13.7-21.2c-0.2-0.3-0.4-0.7-0.6-1c-0.2-0.4-0.3-0.7-0.5-1.1v23.3H288.8z"/>
<path class="st1" d="M337.7,114.2h3.8c-0.2,3.5-1.4,6.3-3.6,8.4c-2.2,2.1-5.1,3.1-8.6,3.1c-4,0-7.2-1.4-9.5-4.1
	c-2.3-2.8-3.4-6.6-3.4-11.4c0-4.5,1.2-8.1,3.6-10.7s5.6-4,9.7-4c3.2,0,5.9,0.8,8,2.5c2.1,1.7,3.3,4,3.6,6.9h-3.8
	c-0.4-1.9-1.2-3.4-2.6-4.4c-1.4-1-3.1-1.5-5.3-1.5c-2.9,0-5.2,1-6.8,3.1c-1.6,2-2.4,4.9-2.4,8.6c0,3.5,0.8,6.3,2.5,8.4
	c1.7,2.1,3.9,3.2,6.6,3.2c2.4,0,4.3-0.7,5.8-2.2C336.8,118.6,337.6,116.7,337.7,114.2"/>
<polygon class="st1" points="346.1,124.9 346.1,96.2 366.5,96.2 366.5,99.8 349.9,99.8 349.9,108.3 365.3,108.3 365.3,111.7 
	349.9,111.7 349.9,121.3 366.9,121.3 366.9,124.9 "/>
</svg>
